Simulation
nRows=24
nColumns=15
endheader
time  TH_x TH_y TH_z SC_y  SC_z  SC_x  AC_y  AC_z  AC_x  GH_y  GH_z  GH_yy  EL_x  PS_y
1.7000000000000002  0.000000  0.000000  0.000000  -33.94895735511537  6.095226516559095  15.833389581357817  69.0856284145203  15.850973552738635  0.015574522055725239  53.54041302985193  58.42926734743969  -51.18991211669824  23.152160600365313  0.000000
1.7340000000000002  0.000000  0.000000  0.000000  -34.01782100542394  6.147123748919709  15.695185792942404  69.06814591585591  15.97298180791955  0.12252721998222231  53.36997780007974  58.245573979648476  -50.78874406318089  23.155779454943175  0.000000
1.7680000000000002  0.000000  0.000000  0.000000  -34.06379245688784  6.165799608382277  15.534827868686783  69.04168644528725  16.067212383001838  0.18635846696253403  53.14753335941968  57.97531991503776  -50.29713319197243  23.15903660348718  0.000000
1.802  0.000000  0.000000  0.000000  -34.09225857895031  6.15391926065027  15.348482343864065  69.0134284552374  16.138125485498183  0.21647362718923602  52.87841004575869  57.61815496756917  -49.7147911452708  23.16447268610132  0.000000
1.836  0.000000  0.000000  0.000000  -34.10553546178834  6.112524242289226  15.134632450568638  68.98617527018341  16.188335960151086  0.21720829833318286  52.5657941195611  57.175405777551276  -49.042066801202175  23.174239843542235  0.000000
1.87  0.000000  0.000000  0.000000  -34.104092630494065  6.043189287541841  14.893909972877339  68.95959733081227  16.218752313648192  0.19064406215285548  52.211518505021765  56.64909294709949  -48.28001060058936  23.188949590812243  0.000000
1.9040000000000001  0.000000  0.000000  0.000000  -34.08837921326699  5.94720189487058  14.628584139935562  68.93215758038065  16.22911074979744  0.1375287060013336  51.815899639108444  56.04141842649881  -47.430128254603645  23.209214554877565  0.000000
1.9380000000000002  0.000000  0.000000  0.000000  -34.059977303345306  5.825766886530853  14.340216629595325  68.90203041972673  16.2200078674029  0.05902331601325096  51.37802077419923  55.355161087558315  -46.49436747400623  23.235174307930624  0.000000
1.9720000000000002  0.000000  0.000000  0.000000  -34.019049835682566  5.681652275162169  14.029375446627208  68.86648756963224  16.19288623860755  -0.04237767785388159  50.8954952585879  54.59361186064182  -45.47550681436015  23.265073144220647  0.000000
2.0060000000000002  0.000000  0.000000  0.000000  -33.96329872487984  5.518092753896969  13.697813189848736  68.82094385408865  16.14735220431044  -0.16571070918481653  50.366174258090446  53.75922039740634  -44.37570471974627  23.299087852271043  0.000000
2.04  0.000000  0.000000  0.000000  -33.89189221896019  5.335833978478901  13.350741490695876  68.76203603321449  16.07775842849784  -0.31328524387955575  49.79136491274402  52.85218055316594  -43.19710775018789  23.338459352461463  0.000000
2.0740000000000003  0.000000  0.000000  0.000000  -33.80689779128622  5.13052836055817  12.997018264184243  68.68940768660967  15.97412767387059  -0.49194112944237145  49.1749591368151  51.87177915687684  -41.94205686928326  23.38760990822472  0.000000
2.108  0.000000  0.000000  0.000000  -33.70681709045952  4.895643778972889  12.645258248595082  68.60105619303545  15.827229915298917  -0.7125320980875436  48.518806425497075  50.819381253727734  -40.61310703939541  23.449877357308957  0.000000
2.1420000000000003  0.000000  0.000000  0.000000  -33.582184514837564  4.625710074188388  12.302040521822391  68.48871619439193  15.631900767659547  -0.9868666900805234  47.82129915946315  49.69680234825177  -39.21296979980251  23.51638320120049  0.000000
2.176  0.000000  0.000000  0.000000  -33.42499768160222  4.314599032942285  11.973166515531261  68.34162037921337  15.387133722490098  -1.3290297819795465  47.07937023360756  48.5033288785308  -37.74515142447596  23.58245951481084  0.000000
2.21  0.000000  0.000000  0.000000  -33.23215644930996  3.9557399358675114  11.661516446096266  68.14932230661142  15.093314879075686  -1.7534640917590563  46.29186843236545  47.23966221204347  -36.214216242628225  23.64811827991594  0.000000
2.244  0.000000  0.000000  0.000000  -32.99588714408048  3.5436907074958746  11.365585989570024  67.89858332064722  14.75566851822933  -2.2724178552493193  45.463692755908646  45.90719340693302  -34.624563061296996  23.712553046324658  0.000000
2.278  0.000000  0.000000  0.000000  -32.70584662315903  3.0790749172901064  11.067289782814246  67.57256311024877  14.396555563809518  -2.8867529780016454  44.61144326828201  44.51023850757339  -32.97949120535017  23.778999313979728  0.000000
2.3120000000000003  0.000000  0.000000  0.000000  -32.36004771883487  2.577636533725142  10.725666256223137  67.15325334110086  14.062303395976892  -3.5697138737034906  43.7643874948424  43.054772816921286  -31.280602570559388  23.858037522183647  0.000000
2.346  0.000000  0.000000  0.000000  -31.972797764339195  2.0767658913101297  10.290151254248176  66.63118003440393  13.811746403684214  -4.261881026593869  42.94711974090183  41.544125194636166  -29.528198658093167  23.96186661615965  0.000000
2.3800000000000003  0.000000  0.000000  0.000000  -31.579611538105073  1.618121665019372  9.750203915344365  66.02600433772653  13.669868118411037  -4.9000569053309135  42.150695412537154  39.97817190085378  -27.723606750915348  24.093459225492985  0.000000
2.414  0.000000  0.000000  0.000000  -31.222860304438186  1.228216699508672  9.147140100811619  65.38725616397554  13.609509237601104  -5.446181940718973  41.32960228994725  38.357791700051735  -25.866698115607207  24.23855107256739  0.000000
2.4480000000000004  0.000000  0.000000  0.000000  -30.92633144458876  0.906341158486322  8.532680980317364  64.76187724064646  13.57288555577121  -5.893095926598166  40.432982218474876  36.691204671742355  -23.964122478796753  24.37696926360462  0.000000
2.482  0.000000  0.000000  0.000000  -30.69460669020735  0.6348908438217485  7.947222903201575  64.17516199449871  13.492756624227917  -6.254378008451987  39.44682279332474  34.991943436509914  -22.02514764324079  24.496726415142092  0.000000
